<?xml version="1.0" encoding="UTF-8"?>
<svg width="229px" height="28px" viewBox="0 0 229 28" version="1.1" xmlns="http://www.w3.org/2000/svg" xmlns:xlink="http://www.w3.org/1999/xlink">
    <title>Zenon Organization</title>
    <g id="Desktop" stroke="none" stroke-width="1" fill="none" fill-rule="evenodd">
        <g id="Logo" transform="translate(-34.000000, -134.000000)" fill="#6FF34D" fill-rule="nonzero">
            <g id="Zenon-Organization" transform="translate(34.000000, 134.000000)">
                <path d="M202.692549,0 L220.411117,16.9852002 L220.411117,0 L228.548143,0 L228.548143,27.07 L220.411117,27.07 L202.692549,9.80270923 L202.692549,27.07 L194.517286,27.07 L194.517286,0 L202.692549,0 Z M162.613357,0 C172.120303,0 179.048714,5.90858438 179.048714,13.535 C179.048714,21.1614156 172.120303,27.07 162.613357,27.07 C153.106411,27.07 146.178,21.1614156 146.178,13.535 C146.178,5.90858438 153.106411,0 162.613357,0 Z M104.853835,0 L122.572403,16.9852002 L122.572403,0 L130.709429,0 L130.709429,27.07 L122.572403,27.07 L104.853835,9.80270923 L104.853835,27.07 L96.6785714,27.07 L96.6785714,0 L104.853835,0 Z M81.21,0 L81.21,6.15398884 L56.5952943,6.15398884 L56.5952943,9.28761506 L73.1650596,9.28761506 L73.1650596,16.7313496 L56.5952943,16.7313496 L56.5952943,20.8405021 L81.21,20.8405021 L81.21,27.07 L48.3392857,27.07 L48.3392857,0 L81.21,0 Z M32.8596204,0 L32.8596204,6.39853699 L10.7869358,20.5826811 L32.8707143,20.5826811 L32.8707143,27.07 L0,27.026018 L0,19.6877981 L21.1414847,6.48802529 L0,6.48802529 L0,0 L32.8596204,0 Z M162.613357,6.18742857 C157.476031,6.18742857 154.299,9.44040743 154.299,13.5444563 C154.299,17.6485052 157.476031,20.8825714 162.613357,20.8825714 C167.750684,20.8825714 170.927714,17.6485052 170.927714,13.5444563 C170.927714,9.44040743 167.750684,6.18742857 162.613357,6.18742857 Z" id="ZENON"></path>
            </g>
        </g>
    </g>
</svg>